# xmcd
#
# Track frame offsets:
#	182
#	10012
#	25450
#	37240
#	55805
#	69372
#	82097
#	92145
#	105642
#	116512
#	129320
#	145492
#	161080
#	175425
#	191255
#	204502
#	218332
#	234195
#
# Disc length: 3282 seconds
#
# Revision: 0
# Processed by: cddbd v1.5.2PL0 Copyright (c) Steve Scherf et al.
# Submitted via: EZCDAudioConverter 2.0.5.1
#
DISCID=f40cd012
DTITLE=Francis Lemarque - Francis chante Lemarque - CD 2
DYEAR=1900
DGENRE=Acapella
TTITLE0=Le temps du muguet
TTITLE1=Le monde est grand
TTITLE2=C'est de la faute a l'accordeon
TTITLE3=Ou vont les fleurs
TTITLE4=Les deux Leon
TTITLE5=Le chomage
TTITLE6=Paris de loin
TTITLE7=L'orphelin de la Java
TTITLE8=Le temps des gaufres
TTITLE9=La rue fait la fete
TTITLE10=New York Paris
TTITLE11=Mon frere Kleber et moi
TTITLE12=Banlieue est banlieue nord
TTITLE13=Le vieux phono
TTITLE14=Vacances a Paris
TTITLE15=C'est pour vous
TTITLE16=Le mur
TTITLE17=Chanson des cours
EXTD=
EXTT0=
EXTT1=
EXTT2=
EXTT3=
EXTT4=
EXTT5=
EXTT6=
EXTT7=
EXTT8=
EXTT9=
EXTT10=
EXTT11=
EXTT12=
EXTT13=
EXTT14=
EXTT15=
EXTT16=
EXTT17=
PLAYORDER=
